<?xml version="1.0" encoding="iso-8859-1"?>
<!-- Generator: Adobe Illustrator 19.0.0, SVG Export Plug-In . SVG Version: 6.00 Build 0)  -->
<svg version="1.1" id="Capa_1" xmlns="http://www.w3.org/2000/svg" xmlns:xlink="http://www.w3.org/1999/xlink" x="0px" y="0px"
	 viewBox="0 0 512.001 512.001" style="enable-background:new 0 0 512.001 512.001;" xml:space="preserve">
<g>
	<g>
		<path d="M487.617,49.137L396.86,10.029c-0.141-0.061-0.283-0.117-0.425-0.171l-16.087-6.66
			c-21.575-8.933-46.61,1.488-55.805,23.229c-11.674,27.599-38.578,45.433-68.542,45.433s-56.868-17.833-68.542-45.433
			c-9.196-21.743-34.227-32.147-55.797-23.201l-19.336,8.022c-0.078,0.032-0.155,0.066-0.232,0.1L24.384,49.136
			c-4.785,2.062-7.186,7.453-5.517,12.388l31.482,93.107c1.567,4.635,6.256,7.459,11.086,6.667l49.296-8.052L86.711,250.05
			c-16.49,53.715-16.01,101.613,1.547,155.244c17.042,58.111,68.8,100.432,129.348,106.063c1.106,0.417,2.297,0.643,3.528,0.643
			h69.73c1.231,0,2.422-0.226,3.528-0.643c60.548-5.63,112.306-47.952,129.348-106.063c9.175-28.009,13.635-54.123,13.635-79.827
			c0-24.253-3.954-48.926-12.087-75.418l-24.02-96.803l49.297,8.052c4.824,0.791,9.519-2.032,11.086-6.667l31.482-93.107
			C494.802,56.588,492.401,51.198,487.617,49.137z M139.327,21.701c11.45-4.75,24.78,0.863,29.711,12.518
			c14.811,35.017,48.946,57.643,86.963,57.643c38.017,0,72.152-22.626,86.964-57.643c4.932-11.66,18.271-17.286,29.733-12.541
			l8.162,3.379c-0.327,1.029-0.666,2.052-1.017,3.069c-0.017,0.049-0.034,0.098-0.051,0.147c-0.043,0.123-0.085,0.245-0.128,0.368
			c-0.036,0.103-0.072,0.206-0.108,0.309c-0.03,0.086-0.061,0.171-0.091,0.257c-0.049,0.138-0.098,0.275-0.147,0.412
			c-0.022,0.062-0.044,0.123-0.067,0.185c-0.061,0.168-0.121,0.336-0.182,0.504c-0.01,0.028-0.02,0.056-0.031,0.084
			c-0.072,0.196-0.144,0.393-0.216,0.588c-0.005,0.013-0.01,0.027-0.015,0.04c-19.114,51.512-68.351,86.353-124.437,86.353
			c-1.405,0-2.807-0.021-4.205-0.064c-0.012,0-0.024-0.001-0.036-0.001c-0.175-0.005-0.35-0.011-0.525-0.017
			c-23.655-0.841-45.998-7.918-65.199-19.815c-4.092-2.551-8.07-5.34-11.921-8.363c-20.564-16.137-36.036-38.212-44.194-62.833
			L139.327,21.701z M113.2,415.333l6.25,1.153c2.269,0.418,4.5,0.857,6.693,1.322c0.438,0.093,0.875,0.187,1.311,0.282
			c0.871,0.19,1.735,0.385,2.593,0.584c2.851,0.662,5.634,1.376,8.349,2.158c0.289,0.083,0.578,0.167,0.866,0.252
			c0.733,0.216,1.461,0.437,2.184,0.664c0.241,0.076,0.481,0.151,0.721,0.228c1.841,0.588,3.649,1.212,5.424,1.876
			c0.083,0.031,0.165,0.062,0.248,0.093c0.501,0.189,0.999,0.381,1.495,0.576c0.137,0.054,0.274,0.108,0.41,0.163
			c0.59,0.236,1.176,0.476,1.759,0.721c0.134,0.057,0.268,0.113,0.402,0.17c14.109,6.016,26.008,15.005,35.703,29.617
			c0.194,0.293,0.388,0.587,0.581,0.882c0.034,0.052,0.069,0.105,0.103,0.158c0.395,0.604,0.787,1.213,1.176,1.826
			c0.011,0.018,0.022,0.035,0.034,0.053c0.196,0.308,0.391,0.618,0.586,0.929c0.004,0.007,0.008,0.014,0.013,0.02
			c0.403,0.644,0.803,1.292,1.201,1.946c0.009,0.014,0.018,0.029,0.026,0.043c5.246,8.626,10.036,18.105,14.324,28.347
			C164.728,481.052,130.026,453.233,113.2,415.333z M306.347,489.398c3.133-7.484,6.534-14.56,10.184-21.194
			c0.007-0.013,0.014-0.026,0.021-0.039c0.377-0.684,0.756-1.364,1.138-2.038c0.012-0.021,0.023-0.041,0.035-0.062
			c0.179-0.316,0.358-0.63,0.539-0.944c0.013-0.023,0.027-0.047,0.04-0.07c0.19-0.33,0.38-0.659,0.571-0.987
			c0.009-0.016,0.018-0.031,0.027-0.047c0.175-0.3,0.351-0.6,0.527-0.898c0.028-0.048,0.056-0.095,0.085-0.143
			c0.37-0.625,0.742-1.246,1.117-1.863c0.037-0.06,0.073-0.12,0.11-0.181c0.171-0.281,0.343-0.561,0.515-0.841
			c0.014-0.023,0.028-0.046,0.043-0.069c0.186-0.302,0.374-0.603,0.561-0.902c0.038-0.06,0.075-0.12,0.113-0.18
			c0.158-0.253,0.317-0.504,0.476-0.755c0.034-0.055,0.069-0.109,0.104-0.164c0.187-0.294,0.374-0.586,0.562-0.878
			c0.031-0.048,0.062-0.096,0.093-0.144c0.155-0.241,0.311-0.48,0.467-0.719c0.052-0.079,0.104-0.159,0.156-0.239
			c0.186-0.284,0.372-0.567,0.559-0.848c0.256-0.386,0.514-0.768,0.773-1.147c3.749-5.47,7.821-10.13,12.214-14.127
			c0.047-0.042,0.094-0.085,0.14-0.127c1.982-1.794,4.029-3.454,6.143-4.993c13.588-9.9,29.882-14.807,48.891-18.313l6.249-1.153
			C381.975,453.233,347.272,481.052,306.347,489.398z M445.42,140.191l-55.9-9.13c-3.318-0.544-6.687,0.619-8.965,3.091
			c-2.279,2.472-3.163,5.924-2.353,9.187l27.739,111.796c0.044,0.18,0.094,0.358,0.148,0.535
			c7.593,24.658,11.284,47.489,11.284,69.8c0,21.888-3.569,44.223-10.899,68.109l-17.553,3.24h0.002
			c-0.23,0.042-0.46,0.085-0.691,0.128c-26.919,5.02-54.414,13.549-75.247,39.924c-0.037,0.047-0.074,0.093-0.111,0.14
			c-0.21,0.266-0.419,0.535-0.627,0.805c-1.546,2.004-3.055,4.109-4.522,6.321c-0.095,0.143-0.189,0.287-0.284,0.43
			c-0.052,0.08-0.105,0.159-0.158,0.239c-0.083,0.127-0.167,0.254-0.25,0.382c-0.069,0.105-0.137,0.21-0.206,0.315
			c-0.079,0.121-0.157,0.242-0.235,0.363c-0.075,0.116-0.151,0.232-0.226,0.349c-0.073,0.113-0.146,0.227-0.219,0.34
			c-0.079,0.123-0.157,0.245-0.236,0.368c-0.069,0.108-0.138,0.216-0.206,0.324c-0.091,0.143-0.181,0.285-0.272,0.428
			c-0.054,0.085-0.108,0.171-0.162,0.256c-0.106,0.168-0.211,0.336-0.317,0.504c-0.044,0.07-0.088,0.14-0.132,0.211
			c-0.115,0.184-0.229,0.368-0.344,0.552c-0.035,0.056-0.07,0.112-0.105,0.169c-0.458,0.741-0.913,1.488-1.365,2.24
			c-0.008,0.014-0.017,0.028-0.025,0.042c-0.142,0.237-0.284,0.475-0.426,0.713c-0.015,0.025-0.03,0.05-0.044,0.075
			c-0.133,0.223-0.265,0.447-0.397,0.671c-0.024,0.041-0.048,0.083-0.073,0.124c-0.125,0.213-0.25,0.426-0.375,0.639
			c-0.024,0.041-0.048,0.083-0.072,0.124c-0.128,0.219-0.255,0.438-0.382,0.658c-0.019,0.034-0.039,0.067-0.058,0.101
			c-0.142,0.246-0.284,0.493-0.426,0.741c-0.001,0.003-0.003,0.005-0.004,0.008c-6.339,11.088-11.998,23.301-16.904,36.498h-55.644
			c-5.137-13.816-11.099-26.556-17.803-38.053c-0.005-0.008-0.01-0.017-0.015-0.025c-0.146-0.251-0.293-0.5-0.439-0.75
			c-0.005-0.008-0.009-0.016-0.014-0.023c-0.908-1.541-1.829-3.06-2.763-4.555c-0.01-0.016-0.02-0.033-0.031-0.049
			c-0.14-0.223-0.28-0.446-0.42-0.668c-0.024-0.039-0.049-0.077-0.073-0.116c-0.125-0.198-0.25-0.395-0.375-0.592
			c-0.035-0.055-0.071-0.111-0.106-0.166c-0.121-0.189-0.241-0.377-0.362-0.565c-0.033-0.051-0.065-0.102-0.098-0.153
			c-0.123-0.191-0.247-0.383-0.371-0.573c-0.032-0.05-0.064-0.099-0.097-0.149c-0.147-0.226-0.294-0.451-0.442-0.676
			c-0.005-0.007-0.009-0.014-0.014-0.021c-0.16-0.243-0.32-0.486-0.48-0.728c-0.42-0.632-0.843-1.256-1.269-1.871
			c-17.824-25.719-41.349-36.422-65.404-42.361c-0.115-0.028-0.23-0.057-0.345-0.085c-0.23-0.056-0.46-0.112-0.691-0.168
			c-0.115-0.028-0.23-0.055-0.345-0.083c-0.23-0.055-0.461-0.11-0.691-0.164c-0.346-0.081-0.691-0.162-1.037-0.241
			c-0.346-0.08-0.692-0.159-1.037-0.236c-1.729-0.389-3.46-0.757-5.19-1.107c-0.346-0.07-0.692-0.139-1.038-0.208
			c-0.231-0.046-0.461-0.091-0.692-0.136c-0.231-0.045-0.461-0.09-0.692-0.135c-0.922-0.178-1.844-0.352-2.764-0.522l-17.554-3.24
			c-14.704-47.873-14.533-89.458,0.385-137.908c0.055-0.177,0.104-0.355,0.148-0.535l27.739-111.796
			c0.81-3.263-0.074-6.715-2.353-9.187c-2.278-2.472-5.648-3.634-8.965-3.091l-55.899,9.13l-25.81-76.339l69.038-29.744
			c11.59,33.966,34.504,61.975,63.807,80.212c22.762,14.254,48.589,22.112,75.742,22.972c0.055,0.002,0.11,0.004,0.165,0.005
			c0.007,0,0.014,0.001,0.021,0.001c1.603,0.05,3.212,0.076,4.825,0.076h0.001c65.579,0,123.017-41.399,144.218-102.258
			c0.009-0.026,0.018-0.051,0.027-0.077c0.067-0.192,0.133-0.385,0.199-0.577c0.019-0.056,0.039-0.113,0.058-0.169
			c0.057-0.166,0.113-0.332,0.169-0.498c0.03-0.089,0.06-0.177,0.09-0.266c0.049-0.147,0.098-0.294,0.147-0.441
			c0.023-0.07,0.047-0.141,0.071-0.211l71.882,30.975L445.42,140.191z"/>
	</g>
</g>
<g>
	<g>
		<path d="M348.768,343.856c-0.13-0.64-0.32-1.27-0.57-1.87c-0.25-0.61-0.56-1.19-0.92-1.73c-0.37-0.55-0.79-1.06-1.25-1.52
			c-1.86-1.86-4.44-2.93-7.071-2.93c-2.63,0-5.21,1.07-7.071,2.93c-0.46,0.46-0.88,0.97-1.24,1.52c-0.36,0.54-0.67,1.12-0.92,1.73
			c-0.25,0.6-0.44,1.23-0.57,1.87s-0.2,1.3-0.2,1.95c0,0.65,0.07,1.31,0.2,1.96c0.13,0.63,0.32,1.26,0.57,1.87
			c0.25,0.6,0.56,1.18,0.92,1.72c0.36,0.55,0.78,1.06,1.24,1.52c1.86,1.86,4.44,2.93,7.071,2.93c2.63,0,5.21-1.07,7.071-2.93
			c0.46-0.46,0.88-0.97,1.25-1.52c0.36-0.539,0.67-1.12,0.92-1.72c0.25-0.61,0.44-1.24,0.57-1.87c0.13-0.65,0.19-1.31,0.19-1.96
			C348.958,345.156,348.898,344.496,348.768,343.856z"/>
	</g>
</g>
<g>
	<g>
		<path d="M298.69,335.806H173.041c-5.523,0-10.001,4.477-10.001,10.001s4.477,10.001,10.001,10.001H298.69
			c5.523,0,10.001-4.477,10.001-10.001S304.213,335.806,298.69,335.806z"/>
	</g>
</g>
<g>
	<g>
		<path d="M326.248,176.146c-9.577-9.056-22.645-14.043-36.797-14.043c-16.333,0-26.933,6.314-33.489,12.736
			c-6.544-6.424-17.126-12.736-33.445-12.736c-14.151,0-27.214,4.988-36.784,14.046c-10.451,9.892-15.974,23.668-15.974,39.838
			c0,13.893,3.152,25.417,10.222,37.367c11.955,20.207,43.417,41.324,66.043,55.45c1.196,0.746,2.186,1.365,2.929,1.839
			c2.125,1.355,4.562,2.034,7,2.034c2.426,0,4.852-0.671,6.973-2.016c0.737-0.468,1.716-1.075,2.898-1.809
			c22.652-14.065,54.161-35.121,66.216-55.499c7.057-11.929,10.204-23.453,10.204-37.365
			C342.242,199.818,336.712,186.04,326.248,176.146z M314.822,243.17c-10.75,18.171-46.187,40.387-58.86,48.26
			c-12.629-7.889-48.105-30.235-58.768-48.26c-5.28-8.927-7.435-16.801-7.435-27.182c0-23.407,16.452-33.884,32.757-33.884
			c13.972,0,20.53,6.786,23.572,12.479c1.945,3.642,5.723,5.906,9.858,5.909h0.006c4.132,0,7.909-2.259,9.857-5.893
			c3.056-5.7,9.639-12.494,23.642-12.494c16.321,0,32.79,10.477,32.79,33.884C322.241,226.388,320.091,234.264,314.822,243.17z"/>
	</g>
</g>
<g>
</g>
<g>
</g>
<g>
</g>
<g>
</g>
<g>
</g>
<g>
</g>
<g>
</g>
<g>
</g>
<g>
</g>
<g>
</g>
<g>
</g>
<g>
</g>
<g>
</g>
<g>
</g>
<g>
</g>
</svg>
