<svg id="Capa_1" enable-background="new 0 0 512.008 512.008" height="512" viewBox="0 0 512.008 512.008" width="512" xmlns="http://www.w3.org/2000/svg"><g><path d="m396.125 167.696c46.233 0 83.848-37.614 83.848-83.849 0-46.233-37.615-83.847-83.848-83.847h-219.684c-50.866 0-92.248 41.383-92.248 92.248v140.054c-29.249 2.94-52.158 27.699-52.158 57.71v163.993c0 31.983 26.02 58.003 58.003 58.003h267.994c31.983 0 58.003-26.02 58.003-58.003v-163.993c0-30.011-22.909-54.77-52.158-57.71v-32.357c0-17.782 14.467-32.249 32.248-32.249zm-291.932-75.448c0-39.838 32.41-72.248 72.248-72.248h219.684c35.206 0 63.848 28.642 63.848 63.848s-28.642 63.849-63.848 63.849c-28.81 0-52.248 23.438-52.248 52.248v32.063h-20v-32.063c0-39.838 32.41-72.248 72.247-72.248 24.178 0 43.849-19.67 43.849-43.849 0-24.178-19.67-43.848-43.848-43.848h-219.684c-28.81 0-52.248 23.438-52.248 52.248v139.76h-20zm40 139.76v-139.76c0-17.781 14.467-32.248 32.248-32.248h219.684c13.149 0 23.848 10.698 23.848 23.848s-10.698 23.849-23.849 23.849c-50.865 0-92.247 41.383-92.247 92.248v32.063zm213.839 260h-267.994c-20.955 0-38.003-17.048-38.003-38.003v-86.236c10.188 8.858 23.474 14.239 38.003 14.239h95.042c.462.526.936 1.045 1.436 1.545l26.113 26.113c3.18 3.179 7.356 4.768 11.533 4.768s8.354-1.589 11.533-4.768c.001 0 .001-.001.002-.001l26.11-26.112c.5-.5.974-1.019 1.436-1.545h94.789c14.528 0 27.815-5.381 38.003-14.24v86.237c0 20.955-17.048 38.003-38.003 38.003zm38.003-201.996v33.993c0 20.955-17.048 38.003-38.003 38.003h-86.982c.007-.271.02-.541.02-.813 0-8.446-3.289-16.387-9.262-22.359-10.179-10.179-25.626-11.954-37.646-5.323-12.019-6.631-27.467-4.854-37.646 5.323-5.972 5.973-9.261 13.913-9.261 22.359 0 .272.013.542.02.813h-87.237c-20.955 0-38.003-17.048-38.003-38.003v-33.993c0-20.955 17.048-38.004 38.003-38.004h267.994c20.955 0 38.003 17.049 38.003 38.004z"/></g></svg>