<svg height="512" viewBox="0 0 60 60" width="512" xmlns="http://www.w3.org/2000/svg"><g id="Page-1" fill="none" fill-rule="evenodd"><g id="022---Perfume" fill="rgb(0,0,0)" fill-rule="nonzero"><path id="Shape" d="m12.726 24.007c-5.45810579 3.4825127-8.75146474 9.5185761-8.726 15.993 0 .5522847.44771525 1 1 1s1-.4477153 1-1c-.02454682-5.7908049 2.91928989-11.1904807 7.8-14.307.465576-.2974053.6019053-.9159239.3045-1.3815-.2974054-.465576-.915924-.6019053-1.3815-.3045z"/><path id="Shape" d="m23 4c-1.6568542 0-3 1.34314575-3 3s1.3431458 3 3 3 3-1.34314575 3-3-1.3431458-3-3-3zm0 4c-.5522847 0-1-.44771525-1-1s.4477153-1 1-1 1 .44771525 1 1-.4477153 1-1 1z"/><path id="Shape" d="m15.5 43c-1.9329966 0-3.5 1.5670034-3.5 3.5s1.5670034 3.5 3.5 3.5 3.5-1.5670034 3.5-3.5-1.5670034-3.5-3.5-3.5zm0 5c-.8284271 0-1.5-.6715729-1.5-1.5s.6715729-1.5 1.5-1.5 1.5.6715729 1.5 1.5-.6715729 1.5-1.5 1.5z"/><circle id="Oval" cx="9" cy="50" r="1"/><circle id="Oval" cx="13" cy="53" r="1"/><path id="Shape" d="m49.5 8c-4.247 0-7.906 2.056-9.558 5h-7.648c-.6590186-.5277814-1.4547227-.8569545-2.294-.949v-8.051c0-2.209139-1.790861-4-4-4h-6c-2.209139 0-4 1.790861-4 4v8.051c-1.6271897.1678206-3.0314455 1.2141053-3.6577158 2.7252954-.6262702 1.5111901-.3737625 3.2440738.6577158 4.5137046-7.42865774 3.5871713-12.36725393 10.8780705-12.94266561 19.1073874-.57541168 8.2293168 3.30049844 16.1365454 10.15766561 20.7226126.838044.565441 1.8240751.8715106 2.835.88h19.91c.942288.0121124 1.8672151-.2539911 2.659-.765 6.4539329-4.2492489 10.3480084-11.4508477 10.37-19.178 0-.02.011-.037.011-.057s-.009-.031-.01-.048c0-.653-.018-1.309-.073-1.967-.6936186-7.5225805-5.0111875-14.2346107-11.569-17.985h5.594c1.652 2.944 5.311 5 9.558 5 5.79 0 10.5-3.813 10.5-8.5s-4.71-8.5-10.5-8.5zm-31.5-4c0-1.1045695.8954305-2 2-2h6c1.1045695 0 2 .8954305 2 2v8h-10zm-1.5 10h13c.6455675.0004417 1.2657718.2513914 1.73.7l.017.014c.4813891.4687281.7529208 1.112106.7529208 1.784s-.2715317 1.3152719-.7529208 1.784l-.017.014c-.4642282.4486086-1.0844325.6995583-1.73.7h-13c-1.3807119 0-2.5-1.1192881-2.5-2.5s1.1192881-2.5 2.5-2.5zm18.018 43.566c-.4664351.2922904-1.0076241.4430453-1.558.434h-19.91c-.6150128-.0071292-1.2142952-.1952962-1.723-.541-4.096162-2.7425162-7.09699072-6.8386103-8.477-11.571 2.20532895-.3120589 4.2908624-1.1948772 6.05-2.561 1.9149953-1.5436967 4.3106105-2.3671231 6.77-2.327 2.4578833-.0404279 4.852125.7823051 6.766 2.325 2.2499389 1.7717059 5.0405275 2.7161422 7.904 2.675 2.8599015.040851 5.6468168-.9033035 7.893-2.674 1.6458483-1.3104117 3.6427029-2.1044215 5.739-2.282-.3381657 6.6992782-3.8496713 12.8360558-9.454 16.522zm9.405-19.412c.026.3.033.595.046.893-2.49802.1736277-4.8875101 1.08827-6.863 2.627-1.9134883 1.5435059-4.3079123 2.3666556-6.766 2.326-2.4619188.0415713-4.8603265-.7823173-6.777-2.328-2.2471188-1.7687471-5.0335583-2.7120344-7.893-2.672-2.862062-.0409948-5.6512344.9030871-7.9 2.674-1.55806562 1.2336299-3.42695032 2.0123319-5.4 2.25-1.84940167-9.717645 3.33834042-19.4073189 12.451-23.256.5330364.2178512 1.1031659.3305868 1.679.332h13c.5780107-.0010194 1.1503045-.1144593 1.685-.334 7.1324257 3.0514381 12.0213328 9.7634186 12.738 17.488zm-10.199-20.154c.3680081-.9661425.3680081-2.0338575 0-3h5.45c-.2319824.986546-.2319824 2.013454 0 3zm15.776 5c-3.716 0-6.875-1.836-8.027-4.382l-.009-.018c-.6186879-1.3316474-.6186879-2.8683526 0-4.2l.009-.018c1.152-2.546 4.311-4.382 8.027-4.382 4.687 0 8.5 2.916 8.5 6.5s-3.813 6.5-8.5 6.5z"/><path id="Shape" d="m49.5 12c-3.888 0-6.5 2.327-6.5 4.5 0 .5522847.4477153 1 1 1s1-.4477153 1-1c0-1.02 1.753-2.5 4.5-2.5.5522847 0 1-.4477153 1-1s-.4477153-1-1-1z"/><path id="Shape" d="m7.105.553c-.12025288.23785574-.14057856.51387497-.05646464.76678s.265707.46176791.50446464.58022l4 2c.4942949.24687128 1.0951287.04629485 1.342-.448s.0462949-1.09512872-.448-1.342l-4-2c-.49294477-.24783699-1.09347633-.04959893-1.342.443z"/><path id="Shape" d="m11.553 10.105-4 2c-.3197527.1596977-.53001867.4778505-.55159274.8346134-.02157407.3567628.14882137.6979349.447.895.29817864.1970651.67884004.2200843.99859274.0603866l4-2c.3197527-.1596977.5300187-.4778505.5515927-.8346134.0215741-.3567628-.1488213-.6979349-.447-.895-.2981786-.19706506-.67884-.22008432-.9985927-.0603866z"/><path id="Shape" d="m6 7c0 .55228475.44771525 1 1 1h4c.5522847 0 1-.44771525 1-1s-.4477153-1-1-1h-4c-.55228475 0-1 .44771525-1 1z"/><path id="Shape" d="m38 50c-.4418278-.3313708-1.0686292-.2418278-1.4.2-1.1017781 1.471544-2.4347177 2.7548403-3.947 3.8l-3.653-.006c-.5522847 0-1 .4477153-1 1s.4477153 1 1 1l3.958.006c.1975323.0000443.3906531-.0584139.555-.168 1.8035285-1.1993844 3.3887024-2.6983157 4.687-4.432.3313708-.4418278.2418278-1.0686292-.2-1.4z"/></g></g></svg>